<?xml version="1.0" standalone="no"?>
<!DOCTYPE svg PUBLIC "-//W3C//DTD SVG 20010904//EN"
 "http://www.w3.org/TR/2001/REC-SVG-20010904/DTD/svg10.dtd">
<svg version="1.0" xmlns="http://www.w3.org/2000/svg"
 width="800.000000pt" height="776.000000pt" viewBox="0 0 800.000000 776.000000"
 preserveAspectRatio="xMidYMid meet">
<metadata>
Created by potrace 1.16, written by Peter Selinger 2001-2019
</metadata>
<g transform="translate(0.000000,776.000000) scale(0.100000,-0.100000)"
fill="#000000" stroke="none">
<path d="M3741 7249 c-821 -63 -1585 -422 -2161 -1015 -408 -421 -665 -869
-840 -1469 -20 -69 -61 -270 -80 -395 -27 -174 -38 -584 -21 -780 59 -667 312
-1293 738 -1825 113 -142 360 -389 490 -492 407 -323 816 -528 1298 -653 280
-72 518 -100 838 -100 566 0 1051 119 1562 384 298 154 559 348 820 610 545
548 856 1188 961 1976 21 156 24 606 5 755 -72 576 -242 1047 -544 1503 -451
681 -1126 1170 -1917 1391 -354 98 -776 139 -1149 110z m609 -784 c58 -8 131
-20 164 -27 l59 -11 34 -74 c18 -40 47 -115 64 -165 34 -103 120 -431 114
-436 -2 -2 -24 4 -49 12 -95 32 -225 13 -318 -45 -73 -47 -119 -117 -139 -211
-8 -38 -22 -65 -49 -94 -31 -33 -59 -72 -96 -132 -1 -2 -62 23 -136 56 -73 33
-191 81 -263 107 -112 41 -144 48 -225 52 -80 4 -104 2 -155 -16 -33 -12 -65
-23 -72 -24 -7 -1 -156 142 -332 318 -253 252 -318 322 -309 331 23 22 182
105 305 159 267 119 574 196 868 219 98 8 432 -4 535 -19z m426 -96 c38 -12
105 -35 148 -51 l79 -31 -7 -101 c-3 -55 -18 -175 -31 -266 -14 -91 -25 -168
-25 -172 0 -4 -18 -20 -40 -34 -38 -25 -41 -26 -59 -10 -13 11 -20 37 -25 84
-17 166 -74 457 -110 560 -9 23 -11 42 -7 42 5 0 40 -9 77 -21z m605 -279
c377 -234 714 -600 924 -1003 175 -337 272 -699 291 -1087 7 -132 6 -135 -12
-119 -21 18 -917 805 -1033 908 -41 36 -137 121 -213 189 l-139 122 28 11
c103 39 169 98 211 187 23 49 27 70 27 147 0 106 -19 158 -85 229 -80 86 -226
127 -346 97 -25 -7 -48 -10 -51 -8 -2 3 10 56 26 118 16 63 40 166 51 229 12
63 24 121 26 128 4 15 152 -60 295 -148z m-642 -389 c193 -73 255 -312 120
-465 -60 -68 -135 -100 -234 -100 -68 -1 -89 3 -137 27 -67 33 -120 85 -151
147 -33 67 -31 177 5 246 71 135 250 201 397 145z m527 -14 c180 -92 219 -323
78 -462 -109 -107 -293 -122 -415 -33 l-39 28 24 38 c56 86 62 221 13 325
l-27 59 23 19 c77 65 244 77 343 26z m-2708 -950 c-433 -187 -874 -477 -1088
-715 -35 -40 -67 -72 -70 -72 -7 0 -2 105 11 220 41 370 162 735 347 1040 53
89 119 188 140 213 15 17 38 -4 359 -325 l344 -343 -43 -18z m1315 512 c211
-85 254 -119 170 -135 -30 -6 -39 -2 -70 27 -31 30 -34 31 -23 9 7 -14 19 -32
27 -41 12 -14 10 -18 -18 -30 -29 -11 -36 -10 -71 8 -45 25 -51 13 -7 -14 l30
-20 -35 -27 c-20 -15 -36 -26 -37 -24 0 2 -2 17 -3 35 -4 36 -34 92 -112 206
-30 43 -54 80 -54 83 0 4 36 -10 203 -77z m1508 -639 c211 -145 512 -352 669
-459 157 -108 345 -236 418 -285 l132 -90 -6 -65 c-28 -324 -105 -628 -225
-892 -53 -117 -144 -285 -158 -293 -11 -7 -705 689 -710 711 -8 40 -105 331
-122 369 -27 56 -31 76 -38 184 -7 95 -7 96 -76 215 -122 214 -316 546 -351
601 -19 29 -34 56 -34 59 0 4 -11 21 -24 38 -37 51 -42 61 -23 54 10 -3 17 -2
17 3 0 5 -11 12 -24 16 -24 6 -56 42 -56 63 0 8 34 15 160 35 14 2 34 3 46 2
11 -1 193 -121 405 -266z m-2712 76 l32 -33 -68 -53 c-98 -78 -224 -210 -265
-280 -32 -55 -52 -73 -180 -162 -425 -298 -805 -600 -943 -750 -31 -33 -58
-58 -60 -56 -8 8 34 164 66 242 132 326 442 629 934 912 121 69 414 213 436
214 8 0 30 -15 48 -34z m181 -182 l135 -136 -39 -31 c-22 -18 -94 -77 -159
-132 -66 -55 -134 -111 -151 -125 -25 -20 -44 -26 -101 -28 -138 -7 -205 32
-205 120 0 27 5 58 10 68 6 11 109 86 230 166 121 81 218 150 215 152 -2 3
-99 -59 -215 -137 -115 -78 -210 -139 -210 -136 0 13 67 103 115 154 50 54
221 201 234 201 3 0 67 -61 141 -136z m2003 -61 c143 -241 267 -474 267 -504
0 -5 -18 3 -40 17 -40 27 -64 28 -137 8 -19 -5 -23 -2 -23 17 0 13 -27 126
-58 251 -34 132 -52 223 -45 216 20 -16 15 3 -12 47 -24 38 -30 55 -21 55 3 0
34 -48 69 -107z m-4 -203 c27 -113 53 -223 57 -245 l6 -41 -51 -24 c-31 -14
-55 -20 -60 -14 -5 5 -11 133 -14 283 -3 151 -1 268 3 260 4 -7 31 -106 59
-219z m-71 -127 c2 -90 0 -163 -4 -163 -4 0 -17 11 -30 25 -13 14 -28 25 -34
25 -5 0 -10 5 -10 12 0 7 -30 41 -67 75 l-67 63 36 25 c43 29 48 30 48 11 0
-8 4 -17 9 -21 6 -3 8 8 5 27 -3 25 2 40 20 63 l25 29 23 -19 22 -20 -17 27
c-11 18 -15 37 -11 53 7 27 20 33 27 13 2 -7 3 0 1 15 -2 16 -1 41 4 55 9 34
16 -72 20 -295z m-1598 56 c0 -4 -17 -10 -37 -14 -77 -14 -347 -96 -408 -124
-35 -16 -68 -38 -74 -49 -12 -22 -7 -76 35 -365 25 -173 26 -179 8 -192 -47
-36 -238 -148 -329 -193 -116 -57 -172 -79 -181 -69 -11 11 -17 295 -9 383 l7
79 212 210 211 211 105 26 c107 26 355 119 387 144 13 11 7 10 -22 -2 -188
-78 -381 -144 -422 -144 -18 0 46 58 210 193 l120 98 94 -93 c51 -51 93 -96
93 -99z m-863 12 c-1 -96 61 -140 197 -141 l78 0 -118 -114 c-315 -301 -559
-621 -639 -838 -19 -52 -14 -50 -179 -69 -55 -6 -127 -7 -159 -4 l-60 7 7 62
c16 159 110 441 203 614 44 81 48 85 189 190 79 59 201 148 270 197 69 50 143
102 163 117 20 15 39 27 43 27 3 1 6 -21 5 -48z m1021 -164 l32 -33 -85 -84
c-46 -46 -82 -87 -79 -91 2 -4 -1 -11 -7 -15 -8 -4 -9 -3 -5 4 16 26 -10 9
-63 -41 -31 -29 -69 -63 -85 -75 -22 -17 -27 -25 -18 -34 14 -14 43 7 36 27
-4 10 0 12 15 8 15 -4 23 1 32 20 6 14 22 30 36 36 13 6 22 15 18 20 -5 10 11
24 32 27 6 1 51 43 100 93 l88 92 49 -50 49 -50 -60 -68 c-205 -233 -432 -593
-586 -929 -139 -304 -279 -713 -331 -969 -9 -44 -19 -90 -22 -103 -6 -30 -18
-24 -162 97 -201 169 -354 341 -505 572 -113 172 -257 464 -242 490 4 5 23 9
43 9 88 0 365 64 529 121 160 57 310 133 510 262 l71 46 12 -83 c6 -46 10 -94
8 -106 -2 -18 -31 -37 -133 -89 -300 -154 -389 -239 -426 -404 -14 -66 -4
-102 33 -116 39 -14 79 9 153 88 179 193 217 225 360 311 162 97 220 147 210
182 -10 33 -18 39 -63 45 l-40 5 -7 97 c-4 53 -8 105 -8 115 -2 14 30 45 100
102 77 62 99 85 89 93 -9 8 -35 -8 -100 -60 -48 -39 -90 -68 -93 -65 -12 12
-16 372 -4 394 6 11 36 30 68 42 54 20 368 98 404 99 8 1 29 -14 47 -32z
m-1719 -349 c-45 -90 -100 -227 -130 -323 -22 -73 -59 -253 -59 -289 0 -35
-28 -34 -106 3 -70 33 -109 77 -130 147 -28 93 -23 105 74 206 73 76 373 338
388 338 2 0 -14 -37 -37 -82z m1791 26 c0 -9 -5 -12 -12 -8 -7 4 -8 3 -4 -5 4
-6 11 -9 16 -6 5 3 14 -3 19 -14 6 -11 8 -21 3 -23 -4 -2 -32 -41 -62 -88 -30
-47 -57 -87 -61 -90 -3 -3 -28 -44 -55 -92 l-49 -87 -12 32 c-6 18 -12 40 -12
50 -1 18 141 245 173 278 9 9 16 19 16 24 0 8 30 45 37 45 1 0 3 -7 3 -16z
m1956 -116 c6 -24 25 -97 42 -162 18 -66 30 -121 29 -123 -2 -1 -37 31 -79 73
l-75 75 30 90 c17 49 33 89 37 89 3 0 10 -19 16 -42z m-3191 -19 c-10 -43 -10
-229 -1 -330 l7 -85 -38 -13 c-78 -25 -277 -81 -290 -81 -7 0 -13 6 -13 13 0
22 86 192 131 260 65 97 193 266 202 267 5 0 6 -14 2 -31z m1986 -531 c-8 -84
-14 -154 -15 -155 -1 -2 -78 -14 -171 -28 -159 -24 -266 -29 -265 -13 0 4 41
89 90 188 48 99 105 223 126 276 l38 95 105 -105 105 -105 -13 -153z m-993
255 c12 -39 5 -54 -93 -223 -18 -30 -51 -90 -73 -133 l-41 -78 -12 42 c-13 41
-12 44 36 138 63 123 158 291 166 291 3 0 11 -16 17 -37z m1152 -248 c76 -76
109 -116 99 -119 -19 -6 -203 -36 -223 -36 -13 0 -16 11 -16 58 0 82 12 212
19 212 4 0 58 -52 121 -115z m-1398 -268 c-11 -23 -41 -94 -67 -157 -25 -63
-52 -128 -59 -143 l-13 -28 -12 43 c-12 45 -5 71 60 215 10 23 19 44 19 48 0
3 14 35 32 71 l32 65 14 -36 c14 -34 13 -40 -6 -78z m1734 -69 l101 -103 -8
-122 -9 -122 -57 -53 c-155 -141 -289 -304 -345 -416 -22 -44 -34 -59 -39 -50
-12 22 -76 254 -93 338 -20 100 -38 350 -34 480 l3 104 40 8 c49 9 269 35 310
37 26 1 46 -14 131 -101z m-513 -175 c7 -248 23 -386 63 -533 59 -215 168
-452 275 -597 21 -29 35 -54 31 -57 -20 -12 -243 -39 -377 -45 -360 -15 -664
27 -985 137 -166 57 -330 130 -330 147 0 6 20 31 45 55 140 137 529 679 716
997 30 51 57 92 60 92 7 1 73 -166 93 -234 23 -80 35 -159 46 -318 5 -83 16
-163 24 -182 13 -30 20 -35 49 -35 23 0 41 8 60 28 43 45 60 105 61 217 1 97
-1 104 -53 240 -69 182 -93 263 -79 271 12 8 220 42 264 43 l31 1 6 -227z
m1031 -606 l1 -266 -36 -38 c-54 -58 -101 -120 -152 -203 -46 -76 -107 -216
-107 -248 -1 -40 -15 -45 -61 -22 -48 25 -148 101 -191 147 l-28 29 25 109
c54 244 95 542 120 875 9 118 19 230 22 249 l5 34 200 -200 200 -200 2 -266z
m-2418 512 c15 -29 14 -34 -4 -78 -11 -25 -27 -68 -35 -96 -9 -27 -29 -88 -45
-134 l-30 -84 -15 30 c-15 29 -14 36 44 211 34 100 63 182 65 182 2 0 11 -14
20 -31z m1979 -146 c-2 -21 -12 -110 -20 -198 -28 -285 -106 -745 -126 -745
-25 0 -174 233 -240 375 l-39 85 34 68 c19 37 62 106 97 152 65 88 268 300
288 300 7 0 9 -13 6 -37z m764 -553 c-48 -244 -142 -465 -238 -561 -46 -46
-105 -80 -116 -67 -1 2 4 59 11 126 24 218 32 411 29 681 l-3 264 169 -169
169 -170 -21 -104z m-333 -232 c-7 -142 -33 -398 -41 -406 -24 -24 -231 -3
-242 23 -7 20 44 163 87 242 45 83 183 273 198 273 3 0 2 -60 -2 -132z"/>
<path d="M4567 5559 c-64 -37 -63 -214 3 -249 47 -25 100 41 100 125 0 52 -12
87 -40 115 -22 22 -36 24 -63 9z"/>
<path d="M5054 5555 c-14 -11 -15 -15 -4 -14 32 3 40 -2 40 -25 0 -41 -43 -42
-52 -1 -4 18 -6 17 -16 -8 -41 -98 21 -233 90 -196 64 34 63 214 -1 249 -26
13 -34 13 -57 -5z"/>
</g>
</svg>
